<svg id="Capa_1" enable-background="new 0 0 480.672 480.672" height="512" viewBox="0 0 480.672 480.672" width="512" xmlns="http://www.w3.org/2000/svg"><path d="m479.491 309.094-8-16c-1.355-2.71-4.125-4.422-7.155-4.422h-8v-16c0-2.122-.843-4.157-2.343-5.657l-16-16c-1.5-1.5-3.535-2.343-5.657-2.343h-24c-3.03 0-5.8 1.712-7.155 4.422l-.845 1.689-.845-1.689c-1.355-2.71-4.125-4.422-7.155-4.422h-32c-3.03 0-5.8 1.712-7.155 4.422l-8 16c-.949 1.898-1.106 4.095-.435 6.108l1.823 5.47h-2.233c-2.122 0-4.157.843-5.657 2.343l-16 16c-1.5 1.5-2.343 3.535-2.343 5.657v16h-16.906c-2.498-10.016-9.946-18.059-19.742-21.316l-4.417-1.472-14.935-74.671v-63.208c-.025-22.081-17.919-39.975-40-40h-28.066l-.177-21.223c7.887-8.642 12.254-19.922 12.243-31.621v-19.156c.01-22.081-17.881-39.989-39.962-40-6.58-.003-13.059 1.618-18.862 4.719-6.23-11.699-20.765-16.133-32.464-9.902s-16.133 20.765-9.902 32.464c4.17 7.83 12.319 12.722 21.191 12.719v19.156c-.01 11.744 4.392 23.064 12.334 31.716v21.128h-28.334c-22.081.025-39.975 17.919-40 40v63.208l-14.935 74.671-4.417 1.472c-9.796 3.257-17.244 11.3-19.742 21.316h-24.907c-4.418 0-8 3.582-8 8v144c0 4.418 3.582 8 8 8h32c4.418 0 8-3.582 8-8v-104h49l31.33 105.608c.996 3.356 4.058 5.675 7.558 5.724l47.333.667h.112c4.418 0 8-3.582 8-8 0-1.259-.297-2.501-.868-3.624l-20.194-39.737-16.9-78.992 38.974 84.854 7.815 38.428c.758 3.727 4.036 6.405 7.84 6.405h40c4.418 0 8-3.581 8-8 0-.868-.141-1.731-.418-2.553l-33.929-100.78h66.347v104c0 4.418 3.582 8 8 8h176c4.418 0 8-3.582 8-8v-160c0-1.242-.289-2.467-.845-3.578zm-15.155 5.467v6.111h-24v-4.687l11.313-11.313h7.743zm-88-5.2v-12.689h12.687l4.245 4.247-.087.175c-.949 1.898-1.106 4.095-.435 6.108l4.49 13.47h-9.587zm32.638-4.073 4.306-8.616h19.056v4.686l-5.657 5.657c-1.5 1.5-2.343 3.535-2.343 5.657v8h-10.234zm4.306-40.616h15.743l11.313 11.313v4.687h-20.686l-9.58-9.58zm-52.306 8.613 4.306-8.613h22.112l4.306 8.614-2.462 7.386h-25.8zm-24.638 34.7 11.313-11.313h12.687v12.687l-11.313 11.313h-12.687zm-200.334-30.791c-.028.042-.052.085-.08.127-3.153-4.731-7.591-8.465-12.792-10.761l12.634-31.588c.849-2.122.749-4.505-.273-6.549 0 0-14.25-23.738-15.972-27.25-.064-.13-.137-.254-.207-.38-1.324-2.792-2.266-5.749-2.8-8.792h92.522l-7.119 32.035c-1.343 6-.323 12.286 2.848 17.554l16.157 26.927c2.237 3.733 3.418 8.003 3.416 12.355v15.137c-.015 11.29-7.886 21.047-18.916 23.453l-10.408-30.92c-4.93-14.668-18.679-24.546-34.153-24.537-9.962-.006-19.277 4.936-24.857 13.189zm8.434-207.683 47.9-17.963v15.613c.011 10.35-5.163 20.018-13.781 25.75-6.188 4.125-14.25 4.125-20.438 0-7.924-5.274-12.972-13.908-13.681-23.4zm44.514-33.779-44.614 16.73v-4.457c-.004-13.251 10.734-23.996 23.985-24.001 8.464-.003 16.302 4.454 20.629 11.728zm-60.614-3.727c-4.418 0-8-3.582-8-8s3.582-8 8-8 8 3.582 8 8v.03c-1.641 2.187-3.053 4.536-4.215 7.011-1.163.628-2.464.957-3.785.959zm-70.291 282.53 8.821-2.94c2.724-.908 4.752-3.206 5.315-6.021l16-80c.103-.517.155-1.042.155-1.569v-64c.015-13.248 10.752-23.985 24-24h36.334c4.418 0 8-3.582 8-8v-18.052c7.599 2.757 15.93 2.735 23.514-.063l.152 18.182c.036 4.392 3.607 7.934 8 7.934h36c13.248.015 23.985 10.752 24 24v64c0 .527.052 1.052.155 1.569l16 80c.563 2.815 2.591 5.113 5.315 6.021l8.821 2.94c2.95.98 5.495 2.902 7.246 5.47h-31.173l-22.364-96.912v-63.089c.001-4.418-3.58-8.001-7.998-8.002-3.751-.001-6.999 2.605-7.812 6.267l-3.941 17.735h-95.049l2.665-14.56-15.738-2.88-4.327 23.667.119.022c-.102.445-.165.898-.19 1.354-.387 7.873 1.076 15.728 4.271 22.934v16.552l-10.534 45.647c-3.719 2.241-6.966 5.185-9.559 8.668-6.34 8.417-8.289 19.352-5.248 29.442l3.9 13.154h-32.1c1.751-2.569 4.299-4.491 7.25-5.47zm180.391 6.137h-6.654c1.911-2.419 3.537-5.051 4.844-7.843zm-206.1 144h-16v-96h16zm-16-112v-16h71.506l4.747 16zm139.535 82.957 14.665 28.857-28.2-.4-48-161.786c-2.727-9.191 2.513-18.851 11.704-21.578 1.603-.475 3.265-.717 4.937-.717 6.455-.015 12.08 4.391 13.612 10.661l30.592 143.013c.145.677.377 1.332.69 1.95zm59 28.376-6.7-32.928c-.123-.601-.314-1.186-.57-1.744l-59.824-130.267c-2.784-7.225.816-15.339 8.041-18.123 1.608-.62 3.317-.938 5.041-.938 8.604-.005 16.249 5.487 18.989 13.643l57.353 170.357zm-3.656-127.333h109.121v16h-103.734zm93.121 32h16v96h-16zm32 96v-128h128v16h-112v16h112v96z"/><path d="m352.336 384.672h16v16h-16z"/><path d="m352.336 416.672h16v32h-16z"/><path d="m349.175 173.095c-3.624 7.293-3.624 15.862 0 23.155 1.385 2.786 1.385 6.059 0 8.845-3.624 7.293-3.624 15.862 0 23.155l4 8 14.31-7.156-4-8c-1.383-2.786-1.383-6.059 0-8.845 3.627-7.292 3.627-15.863 0-23.155-1.383-2.786-1.383-6.059 0-8.845 3.626-7.293 3.626-15.863 0-23.156l-4-8-14.31 7.156 4 8c1.385 2.786 1.385 6.06 0 8.846z"/><path d="m389.181 173.095c-3.624 7.293-3.624 15.861 0 23.154 1.384 2.786 1.384 6.06 0 8.846-3.624 7.293-3.624 15.862 0 23.155l4 8 14.31-7.156-4-8c-1.384-2.786-1.384-6.06 0-8.846 3.624-7.293 3.624-15.861 0-23.154-1.384-2.786-1.384-6.06 0-8.846 3.624-7.293 3.624-15.862 0-23.155l-4-8-14.31 7.156 4 8c1.384 2.786 1.384 6.06 0 8.846z"/><path d="m429.181 173.095c-3.624 7.293-3.624 15.861 0 23.154 1.384 2.786 1.384 6.06 0 8.846-3.624 7.293-3.624 15.862 0 23.155l4 8 14.31-7.156-4-8c-1.384-2.786-1.384-6.06 0-8.846 3.624-7.293 3.624-15.861 0-23.154-1.384-2.786-1.384-6.06 0-8.846 3.624-7.293 3.624-15.862 0-23.155l-4-8-14.31 7.156 4 8c1.384 2.786 1.384 6.06 0 8.846z"/></svg>