<svg id="Capa_1" enable-background="new 0 0 480.025 480.025" height="512" viewBox="0 0 480.025 480.025" width="512" xmlns="http://www.w3.org/2000/svg"><path d="m479.97 359.635c-1.267-14.255-4.056-28.332-8.32-41.993l-.585.182c-.107-.347-22.511-64.283-22.511-64.283l-.007-.016-8.213-23.285c-4.263-12.012-5.842-24.812-4.626-37.5.275-3.036.714-6.055 1.316-9.043l8.958-44.78c.662-3.287 2.018-17.01 2.018-20.409v-23.1c30.579-17.618 41.086-56.689 23.469-87.268-.928-1.61-1.925-3.179-2.99-4.702-1.495-2.145-3.944-3.424-6.559-3.425h-251.84c-2.614 0-5.063 1.277-6.559 3.42-20.215 28.928-13.151 68.766 15.777 88.98 1.523 1.064 3.092 2.062 4.702 2.99v23.1c0 .5.011 1.006.019 1.51h-13.819c-3.298-14.14-13.992-25.387-27.948-29.393 0 0-37.952-10.659-38.916-10.579l-95.669 7.972h-39.667c-4.418 0-8 3.582-8 8v56c0 4.418 3.582 8 8 8h37.085c10.861 8.81 24.225 13.969 38.188 14.743 12.795.631 25.533-2.09 36.954-7.894l15.773 4.314v20.837c0 4.418 3.582 8 8 8h72v-16h-64v-8.461s18.11 4.649 20.26 4.649c10.998-.032 20.607-7.437 23.44-18.064.012-.045.025-.089.036-.134.023-.081.044-.161.065-.242.48-1.933.723-3.917.725-5.908.007-7.892-3.827-15.293-10.277-19.84h39.234c.166.971.341 1.937.533 2.889l8.962 44.8c.602 2.995 1.042 6.02 1.317 9.062 1.213 12.681-.368 25.474-4.63 37.479 0 0-29.111 82.579-29.384 83.4l-108.4 29.853c-3.471.953-5.878 4.108-5.881 7.707v30.4c-9.207-3.343-18.988-4.817-28.771-4.334-7.475.382-14.826 2.057-21.729 4.95-5.909 2.471-11.437 5.769-16.419 9.794h-13.081c-4.418 0-8 3.582-8 8v56c0 4.418 3.582 8 8 8h15.667l95.669 7.972c.221.019.442.029.664.028.742 0 38.25-10.608 38.25-10.608 15.161-4.346 26.359-17.188 28.6-32.8l3.049-21.331 2.1-.613v73.352h16v-78.022l41.858-12.219 54.143 23.204v67.037h16v-64h32v64h16v-66.413l95.942-41.117c.036 1.473.058 107.53.058 107.53h16s.073-119.192-.03-120.378zm-351.97-239.622c-4.418 0-8 3.583-7.999 8.001 0 3.67 2.498 6.87 6.059 7.76l48.172 12.039c3.697.916 6.296 4.232 6.3 8.041-.001.655-.078 1.308-.228 1.945-.007.027-.015.053-.022.08l-.032.122c-1.163 4.434-5.7 7.086-10.134 5.923-.028-.007-.057-.015-.085-.023l-48.658-13.309c-2.039-.558-4.217-.286-6.056.756-9.504 5.394-20.347 7.972-31.262 7.432-11.402-.663-22.245-5.162-30.767-12.767-1.461-1.288-3.341-1.999-5.288-2h-32v-40h32c.222 0 .443-.009.664-.028l94.544-7.878 34.642 9.9c7.078 2.03 12.836 7.191 15.625 14.006zm118.754 115.554c4.012-11.42 6.013-23.45 5.914-35.554h124.632l-133.306 43.378zm178.491 0 4.392 12.446h-148.137l137.859-44.859c.238 11.046 2.224 21.985 5.886 32.41zm-188.525 28.446h145.791l-161.474 44.462zm-28.72-224c-.01-8.431 2.218-16.713 6.457-24h243.086c13.275 22.924 5.453 52.268-17.471 65.543-7.315 4.236-15.619 6.464-24.072 6.457h-160c-26.497-.03-47.97-21.503-48-48zm32 78.49v-16.515c5.226 1.348 10.603 2.028 16 2.025h160c5.397.003 10.774-.677 16-2.025v16.515c0 .5-.029 1.007-.038 1.51h-191.924c-.009-.5-.038-1.01-.038-1.51zm190.245 17.51-8.908 44.531c-.232 1.15-.436 2.308-.627 3.469h-169.42c-.191-1.159-.394-2.314-.625-3.459l-8.91-44.541zm-219.551 191.9c.052-.014.104-.029.156-.045l225.1-61.976 16.917 47.949-272.331 79.5c-.021.006-.043.008-.065.015l-7.942 2.32c-.039-1.825-.281-3.641-.721-5.413-3.244-13.023-16.431-20.949-29.453-17.705-.181.045-.361.092-.541.141l-37.814 10.34v-25.741zm-39.684 98.432c-1.345 9.365-8.062 17.069-17.157 19.676l-34.645 9.9-94.544-7.878c-.221-.02-.443-.03-.664-.03h-8v-40h8c1.948-.001 3.828-.712 5.289-2 4.263-3.776 9.118-6.826 14.37-9.028 5.197-2.181 10.733-3.444 16.362-3.734 10.927-.539 21.781 2.038 31.3 7.431 1.839 1.041 4.015 1.313 6.053.755l48.658-13.309c4.421-1.212 8.987 1.389 10.199 5.81.017.06.032.121.048.181.168.671.254 1.36.255 2.052-.007 2.194-.882 4.296-2.434 5.847-.021.021-.044.038-.065.058-1.05 1.043-2.363 1.781-3.8 2.136l-48.17 12.038c-4.287 1.067-6.898 5.408-5.83 9.696.888 3.566 4.091 6.068 7.765 6.067h40c3.03 0 5.8-1.712 7.155-4.422l4.083-8.167c3.06-.927 5.907-2.449 8.377-4.479l9.418-2.748zm143.36-26.332-40.351-17.293 183.651-53.607c2.335 8.692 4.028 17.543 5.066 26.483l-103.649 44.417z"/></svg>