<svg id="Capa_1" enable-background="new 0 0 480 480" height="512" viewBox="0 0 480 480" width="512" xmlns="http://www.w3.org/2000/svg"><path d="m355.123 183.316 1.3-1.517c28.111-32.812 43.567-74.592 43.577-117.799 0-18.555-17.67-35.284-49.754-47.1-29.573-10.9-68.725-16.9-110.246-16.9s-80.673 6-110.246 16.9c-32.084 11.816-49.754 28.545-49.754 47.1.01 43.207 15.465 84.988 43.577 117.8l1.3 1.517c-38.867 36.895-60.877 88.134-60.877 141.724v146.959c0 4.418 3.582 8 8 8h336c4.418 0 8-3.582 8-8v-146.959c0-53.591-22.009-104.83-60.877-141.725zm-219.837-151.407c27.845-10.259 65.033-15.909 104.714-15.909s76.869 5.65 104.714 15.909c24.6 9.063 39.286 21.059 39.286 32.091 0 9.981-12.023 20.751-32.532 29.425-15.679-22.355-59.574-37.425-111.468-37.425s-95.788 15.07-111.468 37.425c-20.509-8.673-32.532-19.444-32.532-29.425 0-11.032 14.686-23.028 39.286-32.091zm200.274 67.267c-26.601 8.293-60.073 12.824-95.56 12.824s-68.959-4.531-95.56-12.824c5.766-6.095 15.336-11.824 27.626-16.366 18.86-6.971 42.986-10.81 67.934-10.81s49.074 3.839 67.934 10.81c12.29 4.542 21.86 10.271 27.626 16.366zm-87.56 300.824v-15.844c15.336.581 29.455 2.821 40.382 6.463 12.903 4.301 15.618 8.694 15.618 9.381s-2.715 5.08-15.618 9.381c-12.805 4.268-29.982 6.619-48.382 6.619s-35.577-2.351-48.382-6.619c-12.903-4.301-15.618-8.694-15.618-9.381s2.715-5.08 15.618-9.381c10.927-3.642 25.046-5.882 40.382-6.463v15.844zm-8-41.838c-9.762-7.767-15.512-17.975-15.97-28.626-.5-11.683 5.165-22.815 15.97-31.4 10.805 8.583 16.473 19.715 15.97 31.4-.458 10.651-6.208 20.864-15.97 28.626zm-31.955-27.938c.614 14.271 7.511 27.747 19.245 38.139-34.408 1.975-67.29 12.059-67.29 31.637v64h-24v-64c.064-48.89 34.118-91.158 81.875-101.623-6.753 9.214-10.215 20.43-9.83 31.847zm-32.045 133.776v-43.773c15.6 8 40.349 11.773 64 11.773s48.4-3.775 64-11.773v43.773zm144 0v-64c0-19.578-32.882-29.662-67.29-31.637 11.734-10.392 18.631-23.868 19.245-38.139.385-11.417-3.077-22.633-9.83-31.847 47.757 10.465 81.811 52.733 81.875 101.623v64zm80 0h-40v-64c-.075-66.243-53.757-119.925-120-120-66.243.075-119.925 53.757-120 120v64h-40v-138.959c-.001-51.736 22.332-100.953 61.268-135.02 3.302-2.889 3.661-7.897.806-11.228l-6.349-7.407c-18.65-21.772-31.309-48.024-36.732-76.174 7.935 5.921 18.246 11.282 30.761 15.892 29.573 10.896 68.725 16.896 110.246 16.896s80.673-6 110.246-16.9c12.515-4.61 22.826-9.971 30.761-15.892-5.423 28.149-18.082 54.402-36.731 76.174l-3.956 4.618h-172.32v16h172.934c37.604 34.008 59.062 82.34 59.066 133.041z"/><path d="m117.49 244.033 13.9 7.932c3.002-5.257 6.324-10.326 9.947-15.176l-12.816-9.578c-4.017 5.377-7.701 10.994-11.031 16.822z"/><path d="m96 325.043h16c-.027-20.471 4.235-40.72 12.513-59.443l-14.642-6.451c-9.176 20.755-13.901 43.202-13.871 65.894z"/></svg>