<?xml version="1.0" encoding="iso-8859-1"?>
<!-- Generator: Adobe Illustrator 19.0.0, SVG Export Plug-In . SVG Version: 6.00 Build 0)  -->
<svg version="1.1" id="Capa_1" xmlns="http://www.w3.org/2000/svg" xmlns:xlink="http://www.w3.org/1999/xlink" x="0px" y="0px"
	 viewBox="0 0 456 456" style="enable-background:new 0 0 456 456;" xml:space="preserve">
<rect x="44" y="184" style="fill:#0071BC;" width="368" height="264"/>
<rect x="12" y="96" style="fill:#29ABE2;" width="432" height="88"/>
<rect x="180" y="96" style="fill:#DA4836;" width="96" height="352"/>
<path d="M44,456h368c4.418,0,8-3.582,8-8V192h24c4.418,0,8-3.582,8-8V96c0-4.418-3.582-8-8-8H320.952
	C347.816,70.246,363.983,40.201,364,8c0-4.418-3.582-8-8-8h-40c-38.203,0.046-72.751,22.716-88,57.744
	C212.751,22.716,178.203,0.046,140,0h-40c-4.418,0-8,3.582-8,8c0.017,32.201,16.184,62.246,43.048,80H12c-4.418,0-8,3.582-8,8v88
	c0,4.418,3.582,8,8,8h24v256C36,452.418,39.582,456,44,456z M52,192h120v248H52V192z M228,104h27.432L188,165.816V104H228z
	 M188,275.52l80-73.336v66.296l-80,73.336V275.52z M188,363.52l80-73.336v66.296l-80,73.336V363.52z M268,114.184V176h-67.432
	L268,114.184z M255.432,192L188,253.816V192H255.432z M200.568,440L268,378.184V440H200.568z M404,440H284V192h120V440z M436,176
	H284v-72h152V176z M316,16h31.6c-4.155,40.856-38.533,71.952-79.6,72h-31.6C240.555,47.144,274.933,16.048,316,16z M108.4,16H140
	c41.067,0.048,75.445,31.144,79.6,72H188C146.933,87.952,112.555,56.856,108.4,16z M20,104h152v72H20V104z"/>
<g>
</g>
<g>
</g>
<g>
</g>
<g>
</g>
<g>
</g>
<g>
</g>
<g>
</g>
<g>
</g>
<g>
</g>
<g>
</g>
<g>
</g>
<g>
</g>
<g>
</g>
<g>
</g>
<g>
</g>
</svg>
