<svg height="461pt" viewBox="0 -2 461.504 461" width="461pt" xmlns="http://www.w3.org/2000/svg"><path d="m430.753906 228.46875c0 110.457031-89.546875 200-200 200-110.457031 0-200-89.542969-200-200s89.542969-200 200-200c110.453125 0 200 89.542969 200 200zm0 0" fill="#8ac03f"/><path d="m398.753906 228.46875c0 92.78125-75.21875 168-168 168-92.785156 0-168-75.21875-168-168 0-92.785156 75.214844-168 168-168 92.78125 0 168 75.214844 168 168zm0 0" fill="#c6db5b"/><path d="m306.753906 128.46875c-15.464844-15.464844-40.539062-15.464844-56 0l-20 20-20-20c-15.464844-15.464844-40.539062-15.464844-56 0-15.464844 15.464844-15.464844 40.535156 0 56l76 76 76-76c15.460938-15.464844 15.460938-40.535156 0-56zm0 0" fill="#ec4042"/><path d="m230.753906 52.46875c-97.203125 0-176 78.796875-176 176s78.796875 176 176 176c97.199219 0 176-78.796875 176-176-.113281-97.15625-78.84375-175.890625-176-176zm0 336c-88.367187 0-160-71.636719-160-160 0-88.367188 71.632813-160 160-160 88.363282 0 160 71.632812 160 160-.101562 88.324219-71.679687 159.898438-160 160zm0 0"/><path d="m156.273438.253906c-4.488282 1.464844-8.914063 3.066406-13.28125 4.796875l5.847656 14.898438c4.082031-1.601563 8.210937-3.082031 12.390625-4.449219zm0 0"/><path d="m138.0625 24.46875-6.621094-14.5625c-64.042968 29.050781-112.097656 84.753906-131.441406 152.363281l15.375 4.398438c18.066406-63.097657 62.917969-115.085938 122.6875-142.199219zm0 0"/><path d="m300.273438 441.46875 4.957031 15.199219c4.488281-1.464844 8.914062-3.066407 13.28125-4.800781l-5.847657-14.894532c-4.078124 1.640625-8.210937 3.140625-12.390624 4.496094zm0 0"/><path d="m323.441406 432.46875 6.621094 14.558594c64.039062-29.042969 112.09375-84.742188 131.441406-152.34375l-15.375-4.398438c-18.070312 63.089844-62.921875 115.070313-122.6875 142.183594zm0 0"/><path d="m245.097656 122.8125-14.34375 14.34375-14.347656-14.34375c-18.648438-18.21875-48.484375-18.046875-66.921875.390625-18.433594 18.433594-18.609375 48.269531-.386719 66.921875l76 76c3.121094 3.121094 8.1875 3.121094 11.308594 0l76-76c18.222656-18.652344 18.046875-48.488281-.386719-66.921875-18.4375-18.4375-48.273437-18.609375-66.921875-.390625zm56 56-70.34375 70.34375-70.347656-70.34375c-12.1875-12.367188-12.117188-32.25.160156-44.527344 12.277344-12.28125 32.164063-12.351562 44.53125-.160156l20 20c3.121094 3.121094 8.1875 3.121094 11.308594 0l20-20c12.367188-12.191406 32.253906-12.121094 44.53125.160156 12.277344 12.277344 12.347656 32.160156.160156 44.527344zm0 0"/><path d="m142.753906 316.46875h16v16h-16zm0 0"/><path d="m302.753906 316.46875h16v16h-16zm0 0"/><path d="m255.550781 320.890625-8.796875 17.6875-24.800781-49.6875c-1.503906-2.519531-4.226563-4.066406-7.160156-4.066406-2.9375 0-5.65625 1.546875-7.160157 4.066406l-13.824218 27.578125h-19.054688v16h24c3.03125 0 5.800782-1.710938 7.15625-4.425781l8.84375-17.6875 24.796875 49.6875c1.355469 2.714843 4.128907 4.433593 7.160157 4.433593 3.035156 0 5.808593-1.71875 7.160156-4.433593l13.824218-27.574219h19.058594v-16h-24c-3.046875-.015625-5.839844 1.699219-7.203125 4.421875zm0 0"/><path d="m438.753906 228.46875c0-114.875-93.125-208-208-208-114.878906 0-208 93.125-208 208s93.121094 208 208 208c114.820313-.128906 207.871094-93.179688 208-208zm-208 192c-106.039062 0-192-85.960938-192-192s85.960938-192 192-192c106.035156 0 192 85.960938 192 192-.125 105.988281-86.015625 191.875-192 192zm0 0"/></svg>